<svg version="1.1" xmlns:xlink="http://www.w3.org/1999/xlink" xmlns="http://www.w3.org/2000/svg" style="background-color: #ffffff00" viewBox="0 0 161 146" height="146px" width="161px">
<path d="M 2604.23,2345 L 2610,2355 L 2604.23,2365 L 2015.77,2365 L 2004.23,2345 L 2604.23,2345 Z" transform="matrix(0.0666667 0 0 0.0666667 -96.4667 -84)" fill="#000000" stroke="none"></path>
<text font-family="Arial" font-size="200px" font-weight="normal" font-style="normal" transform="matrix(0.0666667 0 0 0.0666667 12.3333 43.559)" fill="#000000" stroke="none" y="0" x="0">
O</text>
<path d="M 1730.7,1963.24 L 1748.02,1953.24 L 1997.88,2386 L 1980.56,2396 L 1730.7,1963.24 Z" transform="matrix(0.0666667 0 0 0.0666667 -96.4667 -84)" fill="#000000" stroke="none"></path>
<path d="M 1793.05,1927.24 L 1810.37,1917.24 L 2060.23,2350 L 2042.91,2360 L 1793.05,1927.24 Z" transform="matrix(0.0666667 0 0 0.0666667 -96.4667 -84)" fill="#000000" stroke="none"></path>
<text font-family="Arial" font-size="200px" font-weight="normal" font-style="normal" transform="matrix(0.0666667 0 0 0.0666667 2.70443 112.841)" fill="#000000" stroke="none" y="0" x="0">
HO</text>
<path d="M 1771.87,2787.45 L 1754.55,2777.45 L 2004.23,2345 L 2015.77,2365 L 1771.87,2787.45 Z" transform="matrix(0.0666667 0 0 0.0666667 -96.4667 -84)" fill="#000000" stroke="none"></path>
<path d="M 2904.23,1825.38 L 2915.77,1845.38 L 2621.55,2355 L 2610,2355 L 2604.23,2345 L 2904.23,1825.38 Z" transform="matrix(0.0666667 0 0 0.0666667 -96.4667 -84)" fill="#000000" stroke="none"></path>
<path d="M 3504.23,1825.38 L 3515.77,1845.38 L 2915.77,1845.38 L 2904.23,1825.38 L 3504.23,1825.38 Z" transform="matrix(0.0666667 0 0 0.0666667 -96.4667 -84)" fill="#000000" stroke="none"></path>
<path d="M 3801.34,1310.77 L 3818.66,1320.77 L 3515.77,1845.38 L 3504.23,1825.38 L 3801.34,1310.77 Z" transform="matrix(0.0666667 0 0 0.0666667 -96.4667 -84)" fill="#000000" stroke="none"></path>
<path d="M 2915.77,2864.62 L 2904.23,2884.62 L 2604.23,2365 L 2610,2355 L 2621.55,2355 L 2915.77,2864.62 Z" transform="matrix(0.0666667 0 0 0.0666667 -96.4667 -84)" fill="#000000" stroke="none"></path>
<path d="M 3515.77,2864.62 L 3504.23,2884.62 L 2904.23,2884.62 L 2915.77,2864.62 L 3515.77,2864.62 Z" transform="matrix(0.0666667 0 0 0.0666667 -96.4667 -84)" fill="#000000" stroke="none"></path>
<path d="M 3818.66,3389.23 L 3801.34,3399.23 L 3504.23,2884.62 L 3515.77,2864.62 L 3818.66,3389.23 Z" transform="matrix(0.0666667 0 0 0.0666667 -96.4667 -84)" fill="#000000" stroke="none"></path>
</svg>
